<svg width="117" height="132" viewBox="0 0 117 132" fill="none" xmlns="http://www.w3.org/2000/svg">
<path d="M58.0612 132L10.5809 118.805L0 -6.64219e-06H116.265L105.673 118.787L58.0612 132Z" fill="#4353AD"/>
<path d="M96.6047 111.223L105.655 9.71424H58.1321V121.9L96.6047 111.223" fill="#485FB5"/>
<path d="M58.1321 91.6195L58.0683 91.6361L41.8586 87.2543L40.8222 75.6335H26.2111L28.2501 98.512L58.0652 106.798L58.1321 106.779V91.6195ZM21.635 24.2853L22.9581 38.8559H58.1321V24.2853H21.635ZM24.2564 53.7767L25.5608 68.3477H58.1321V53.7767H24.2564" fill="#EDEDED"/>
<path d="M91.9151 53.777L94.5423 24.2857H58.0821V38.8563H78.5916L77.2674 53.777H58.0821V68.3481H76.0053L74.3147 87.2461L58.0816 91.6318V106.791L87.9202 98.5124L88.1387 96.0511L91.56 57.6898L91.9151 53.777Z" fill="white"/>
</svg>
