<svg width="116" height="133" viewBox="0 0 116 133" fill="none" xmlns="http://www.w3.org/2000/svg">
<path d="M10.5565 119.119L0 -0.000121166H116L105.432 119.1L57.9288 132.349L10.5565 119.119Z" fill="#E53D20"/>
<path d="M58 122.222L96.3848 111.516L105.416 9.73992H58V122.222Z" fill="#F15123"/>
<path d="M58 53.9194H38.7837L37.4564 38.9589H58V24.3494H57.9497H21.5855L21.9333 28.2688L25.5025 68.5283H58V53.9194Z" fill="#EDEDED"/>
<path d="M58 91.8608L57.9363 91.878L41.7633 87.4844L40.729 75.8329H32.8702H26.1512L28.1859 98.7718L57.9331 107.079L58 107.061V91.8608Z" fill="#EDEDED"/>
<path d="M57.9497 53.9194V68.5283H75.8318L74.1463 87.4757L57.9497 91.8736V107.073L87.7205 98.7722L87.9388 96.3041L91.3515 57.8422L91.7058 53.9194H87.7925H57.9497Z" fill="white"/>
<path d="M57.9497 24.35V38.9595H92.9805H93.0271L93.3184 35.6756L93.9801 28.2694L94.3273 24.35H57.9497" fill="white"/>
</svg>
