<svg width="122" height="122" viewBox="0 0 122 122" fill="none" xmlns="http://www.w3.org/2000/svg">
<path d="M0 0H122V122H0V0Z" fill="#F7DF1E"/>
<path d="M32.0781 101.952L41.4144 96.3022C43.2156 99.4957 44.8541 102.198 48.7842 102.198C52.5515 102.198 54.9266 100.724 54.9266 94.9919V56.01H66.3915V95.154C66.3915 107.029 59.4309 112.434 49.2757 112.434C40.1042 112.434 34.7803 107.684 32.0779 101.951" fill="black"/>
<path d="M72.619 100.724L81.9542 95.3185C84.4116 99.3318 87.6055 102.28 93.2558 102.28C98.0063 102.28 101.036 99.9046 101.036 96.6288C101.036 92.6979 97.9238 91.3055 92.6824 89.0133L89.817 87.784C81.5452 84.2632 76.0581 79.841 76.0581 70.5049C76.0581 61.906 82.6095 55.3542 92.8466 55.3542C100.135 55.3542 105.376 57.8932 109.143 64.5267L100.217 70.259C98.251 66.7378 96.1224 65.3459 92.8468 65.3459C89.4891 65.3459 87.3597 67.475 87.3597 70.259C87.3597 73.6986 89.4891 75.0911 94.4022 77.2205L97.2683 78.4488C107.014 82.6257 112.501 86.8837 112.501 96.4649C112.501 106.784 104.393 112.434 93.5017 112.434C82.8556 112.434 75.9763 107.357 72.6192 100.724" fill="black"/>
</svg>
