<svg width="85" height="188" viewBox="0 0 85 188" fill="none" xmlns="http://www.w3.org/2000/svg">
<path d="M65.2478 182.218L67.0497 152.181L72.0252 143.684C72.0252 143.684 60.701 148.319 41.7423 148.319C22.7833 148.319 11.6307 143.77 11.6307 143.77L17.2069 153.038L19.1795 182.218C19.1795 185.346 29.492 187.882 42.2138 187.882C54.9349 187.882 65.2478 185.346 65.2478 182.218Z" fill="#D34A47"/>
<path d="M59.5637 41.95L63.3459 26.9947L84.2908 4.94755L78.7704 0.243896L56.5961 23.7296L52.2046 41.5973C49.0227 41.4896 45.7021 41.4322 42.2858 41.4322C18.9321 41.4322 0 44.0947 0 47.3784C0 50.6624 18.9321 53.3247 42.2858 53.3247C65.6393 53.3247 84.571 50.6624 84.571 47.3784C84.571 44.9603 74.3033 42.879 59.5637 41.95Z" fill="#D34A47"/>
<path d="M57.3637 50.3254C57.3637 50.3254 56.5446 50.5091 54.135 50.5194C51.7248 50.5293 50.0135 50.5038 49.3319 49.8826C49.1486 49.7159 49.0483 49.3847 49.0493 49.1605C49.0513 48.7337 49.3541 48.4823 49.7399 48.3248L50.1049 48.8975C49.9461 48.9523 49.8555 49.017 49.8552 49.0861C49.8538 49.4103 52.3195 49.6322 54.2054 49.6083C56.0917 49.585 58.3708 49.4296 58.3728 49.11C58.3728 49.0134 58.2004 48.9224 57.9006 48.8506L58.2639 48.282C58.7526 48.4338 59.1793 48.7271 59.1783 49.2346C59.1736 50.0975 58.0759 50.2287 57.3637 50.3254Z" fill="white"/>
<path d="M84.2496 4.99108C84.7762 4.38257 83.977 2.82609 82.4646 1.51507C80.9515 0.204718 79.298 -0.364596 78.7704 0.243913C78.2435 0.852421 79.043 2.4089 80.5561 3.71926C82.0685 5.02994 83.7227 5.59992 84.2496 4.99108Z" fill="#D34A47"/>
<path d="M64.2404 108.85C63.744 104.072 74.6868 97.1526 71.8785 96.931C65.8329 97.2768 62.824 104.019 59.7823 111.08C58.6676 113.667 54.8536 124.702 52.3521 123.344C49.8512 121.986 55.5943 112.912 57.204 107.523C55.3466 108.885 48.535 114.18 46.7796 109.221C43.9573 111.619 37.9266 112.918 38.607 106.62C37.1055 109.28 33.7357 112.995 29.6909 111.451C24.3791 109.425 32.7689 92.4977 34.855 93.3517C36.9415 94.2053 34.434 98.0613 33.7772 99.5587C32.3329 102.854 30.6644 106.997 31.7791 107.845C33.6886 109.297 38.8849 102.348 39.0004 102.196C39.9723 100.911 42.7411 92.508 44.9727 93.4729C47.2042 94.4379 39.4065 105.533 42.3221 107.735C42.9101 108.179 45.316 107.461 46.7796 105.877C47.7265 104.852 47.4008 102.582 50.5574 95.0517C53.714 87.5214 56.5273 78.1433 58.6922 78.8578C60.857 79.5719 59.0727 84.3852 58.2961 86.1795C54.6517 94.6009 48.3498 108.514 51.3218 107.461C54.2938 106.408 55.8414 106.346 58.7516 102.939C61.6619 99.5321 61.5277 93.9204 63.4675 94.0396C65.4079 94.1592 65.0821 95.9585 64.6116 97.3286C66.5208 95.143 73.6615 90.54 75.3854 95.0988C77.4274 100.496 65.1691 108.292 68.2255 107.894C71.2055 107.507 76.0332 104.448 78.0944 101.667L83.7682 50.6392C83.7682 50.6392 78.0589 55.3657 41.7367 55.3657C5.41413 55.3657 0.295532 50.7375 0.295532 50.7375L5.12592 97.3137C7.68987 90.0238 13.7783 75.2788 23.3754 75.7737C27.7409 75.9989 33.5687 84.4081 28.5766 84.6931C26.4636 84.8133 26.2491 80.4956 23.7469 79.8615C21.9413 79.4038 19.4275 80.8723 17.8029 82.4633C14.5629 85.6354 7.59458 98.1507 8.5153 104.39C9.68836 112.345 19.4883 101.626 21.1464 98.4436C22.3142 96.2019 23.1031 89.5601 25.6571 90.257C28.2114 90.9539 25.4343 97.8082 23.5829 103.868C21.503 110.673 20.4097 117.851 17.8029 117.026C15.1958 116.201 19.4424 107.416 19.2887 105.877C16.8383 108.138 12.324 113.864 6.54868 111.03L9.54858 139.953C9.54858 139.953 17.5216 146.255 41.5398 146.255C65.5579 146.255 73.8262 140.052 73.8262 140.052L77.5512 106.552C74.5035 109.52 64.858 114.792 64.2404 108.85Z" fill="#D34A47"/>
</svg>
