<svg width="159" height="120" viewBox="0 0 159 120" fill="none" xmlns="http://www.w3.org/2000/svg">
<path d="M136.815 68.5186C131.284 68.5476 126.476 69.883 122.45 71.857C120.973 68.925 119.496 66.3123 119.236 64.3963C118.946 62.161 118.598 60.7966 118.946 58.1258C119.293 55.4551 120.857 51.6521 120.828 51.3618C120.799 51.0715 120.481 49.7071 117.295 49.6781C114.109 49.6491 111.358 50.2877 111.039 51.1296C110.721 51.9715 110.113 53.8874 109.707 55.8615C109.157 58.7645 103.336 69.1282 100.005 74.5568C98.9333 72.4376 98.0065 70.5797 97.8038 69.0992C97.5142 66.8639 97.1667 65.4995 97.5142 62.8287C97.8617 60.1579 99.4257 56.355 99.3967 56.0647C99.3678 55.7744 99.0492 54.41 95.8634 54.3809C92.6776 54.3519 89.9262 54.9906 89.6076 55.8325C89.2891 56.6743 88.9415 58.6484 88.2754 60.5644C87.6093 62.4803 79.8765 79.7822 77.8492 84.2529C76.8065 86.5462 75.9087 88.3751 75.2716 89.6234C75.2716 89.6234 75.2426 89.7105 75.1557 89.8557C74.6055 90.9298 74.2869 91.5104 74.2869 91.5104C74.2869 91.5104 74.2869 91.5104 74.2869 91.5394C73.8524 92.3232 73.3891 93.049 73.1574 93.049C72.9836 93.049 72.665 90.9588 73.2153 88.1139C74.3738 82.1046 77.1251 72.757 77.0962 72.4376C77.0962 72.2635 77.6175 70.6378 75.3005 69.7959C73.0415 68.954 72.2306 70.3475 72.0279 70.3475C71.8251 70.3475 71.6803 70.841 71.6803 70.841C71.6803 70.841 74.2 60.3321 66.8727 60.3321C62.2967 60.3321 55.983 65.3543 52.8552 69.883C50.8858 70.9571 46.6863 73.2505 42.1973 75.718C40.4885 76.676 38.7218 77.634 37.071 78.534C36.9552 78.4178 36.8393 78.2727 36.7235 78.1566C27.8612 68.6637 11.4688 61.9578 12.1639 49.2136C12.4246 44.5688 14.0175 32.3762 43.6453 17.5708C68.0311 5.52337 87.4355 8.86182 90.7951 16.2645C95.6027 26.8314 80.3978 46.4557 55.2011 49.3007C45.5858 50.3748 40.5464 46.659 39.2721 45.2655C37.9399 43.814 37.7371 43.7269 37.2448 44.0172C36.4339 44.4527 36.9552 45.759 37.2448 46.5138C37.9978 48.4878 41.0967 51.9715 46.3388 53.6842C50.9727 55.1938 62.2388 56.0357 75.8798 50.7522C91.1426 44.8301 103.075 28.37 99.5705 14.5807C96.0661 0.588258 72.8967 -4.02752 50.9727 3.78156C37.9399 8.42637 23.8065 15.7419 13.641 25.2638C1.56392 36.5855 -0.347552 46.4267 0.434415 50.549C3.2437 65.1801 23.3721 74.702 31.4235 81.7563C31.018 81.9885 30.6415 82.1917 30.3229 82.3659C26.2973 84.369 10.9475 92.4103 7.12458 100.916C2.78032 110.554 7.81966 117.463 11.1503 118.392C21.4896 121.266 32.1186 116.099 37.824 107.564C43.5295 99.0292 42.8344 87.9397 40.1989 82.8594C40.1699 82.8014 40.141 82.7433 40.083 82.6852C41.1257 82.0756 42.1973 81.437 43.2399 80.8273C45.2962 79.6081 47.3235 78.4759 49.0612 77.5469C48.0765 80.2467 47.3524 83.4691 47.0049 88.1139C46.5705 93.5715 48.8005 100.655 51.7257 103.442C53.0289 104.661 54.5639 104.69 55.5486 104.69C58.9661 104.69 60.5011 101.845 62.2098 98.4776C64.2951 94.3553 66.1776 89.5654 66.1776 89.5654C66.1776 89.5654 63.8317 102.513 70.2033 102.513C72.5202 102.513 74.8661 99.4937 75.9087 97.9551V97.9841C75.9087 97.9841 75.9667 97.897 76.0825 97.6938C76.3142 97.3164 76.459 97.0842 76.459 97.0842V97.0261C77.3858 95.4004 79.471 91.7136 82.5699 85.5883C86.5667 77.6921 90.4186 67.8219 90.4186 67.8219C90.4186 67.8219 90.7661 70.2314 91.9535 74.2375C92.6486 76.5889 94.0967 79.1726 95.2552 81.6692C94.3284 82.9756 93.7492 83.7013 93.7492 83.7013C93.7492 83.7013 93.7492 83.7013 93.7781 83.7303C93.0251 84.7174 92.2142 85.7915 91.3164 86.8366C88.1596 90.6105 84.3945 94.9359 83.8732 96.1842C83.265 97.6648 83.4098 98.7389 84.5683 99.6098C85.4082 100.248 86.9142 100.336 88.4492 100.248C91.2874 100.045 93.2858 99.3485 94.2705 98.9131C95.8055 98.3615 97.6011 97.5196 99.2809 96.2713C102.38 93.9779 104.262 90.6975 104.089 86.3721C104.002 83.9916 103.22 81.6111 102.264 79.3758C102.554 78.9694 102.814 78.563 103.104 78.1566C107.998 70.9861 111.792 63.119 111.792 63.119C111.792 63.119 112.14 65.5285 113.327 69.5346C113.907 71.5667 115.094 73.773 116.137 75.9213C111.532 79.6661 108.693 84.0206 107.68 86.8656C105.855 92.1491 107.274 94.5295 109.968 95.0811C111.184 95.3424 112.922 94.7617 114.196 94.2102C115.818 93.6876 117.73 92.7877 119.554 91.4523C122.653 89.159 125.636 85.9656 125.462 81.6402C125.375 79.6661 124.854 77.7211 124.13 75.8342C128.04 74.2085 133.079 73.3085 139.509 74.0633C153.295 75.689 156.017 84.3109 155.496 87.9397C154.974 91.5684 152.078 93.5425 151.122 94.1521C150.167 94.7617 149.848 94.965 149.935 95.4004C150.051 96.0391 150.514 96.01 151.325 95.8939C152.455 95.6907 158.566 92.9619 158.826 86.285C159.261 77.7501 151.151 68.4315 136.815 68.5186ZM30.4677 104.458C25.8918 109.451 19.5202 111.338 16.7688 109.741C13.8147 108.028 14.9732 100.655 20.5918 95.3714C24.0093 92.1491 28.4115 89.159 31.3366 87.3301C32.0027 86.9236 32.9874 86.343 34.1749 85.6173C34.3776 85.5012 34.4934 85.4431 34.4934 85.4431C34.7251 85.2979 34.9568 85.1528 35.1885 85.0077C37.2448 92.5555 35.2754 99.2034 30.4677 104.458ZM63.7738 81.7563C62.1809 85.6463 58.8503 95.6036 56.8229 95.0521C55.0852 94.5876 54.0136 87.0398 56.4754 79.579C57.7208 75.8342 60.3563 71.3635 61.8912 69.6217C64.382 66.8348 67.1333 65.9059 67.7994 67.0381C68.6393 68.5186 64.7585 79.3178 63.7738 81.7563ZM91.2585 94.9359C90.5923 95.2843 89.9552 95.5165 89.6656 95.3424C89.4628 95.2262 89.9552 94.7617 89.9552 94.7617C89.9552 94.7617 93.4016 91.0459 94.7628 89.3622C95.5448 88.3751 96.4716 87.2139 97.4563 85.9076V86.285C97.4563 90.7266 93.1699 93.7167 91.2585 94.9359ZM112.458 90.0879C111.966 89.7396 112.053 88.5783 113.704 84.9496C114.341 83.5271 115.847 81.1467 118.425 78.8533C118.714 79.7822 118.917 80.6822 118.888 81.524C118.859 87.1268 114.862 89.217 112.458 90.0879Z" fill="#CD6799"/>
</svg>
